<svg xmlns="http://www.w3.org/2000/svg" viewBox="0 0 64 64">
  <defs>
    <linearGradient id="g" x1="0" y1="0" x2="1" y2="1">
      <stop offset="0" stop-color="#8B4513"/>
      <stop offset="1" stop-color="#000000"/>
    </linearGradient>
  </defs>
  <rect width="64" height="64" rx="12" fill="url(#g)"/>
  <g transform="translate(8,8)">
    <path d="M14 36c-2 0-4-2-4-4V12c0-2 2-4 4-4h14c8 0 14 6 14 14s-6 14-14 14H14z" fill="#fff" opacity="0.12"/>
    <path d="M14 36c-2 0-4-2-4-4V12c0-2 2-4 4-4h12a8 8 0 0 1 0 16H18v12h-4z" fill="#fff"/>
  </g>
</svg>
